<svg width="82" height="82" viewBox="0 0 82 82" fill="none" xmlns="http://www.w3.org/2000/svg">
<path d="M65.818 12.009C68.1218 12.009 69.9894 13.8766 69.9894 16.1804C69.9894 18.4842 68.1218 20.3518 65.818 20.3518C64.914 20.3518 64.0778 20.0632 63.3947 19.5745L19.5732 63.3962C20.0619 64.0794 20.3505 64.9156 20.3505 65.8196C20.3505 68.1234 18.4829 69.991 16.1791 69.991C13.8754 69.991 12.0078 68.1234 12.0078 65.8196C12.0078 63.5158 13.8754 61.6483 16.1791 61.6483C16.9752 61.6483 17.7192 61.8712 18.352 62.2581L62.2565 18.3533C61.8696 17.7204 61.6467 16.9764 61.6467 16.1804C61.6467 13.8766 63.5143 12.009 65.818 12.009Z" fill="white"/>
<path d="M69.9922 65.8196C69.9922 68.1234 68.1246 69.991 65.8209 69.991C63.5171 69.991 61.6495 68.1234 61.6495 65.8196C61.6495 64.9156 61.9381 64.0794 62.4268 63.3962L18.6053 19.5745C17.9221 20.0632 17.086 20.3518 16.182 20.3518C13.8782 20.3518 12.0106 18.4842 12.0106 16.1804C12.0106 13.8766 13.8782 12.009 16.182 12.009C18.4857 12.009 20.3533 13.8766 20.3533 16.1804C20.3533 16.9764 20.1304 17.7204 19.7435 18.3533L63.648 62.2581C64.2808 61.8712 65.0248 61.6483 65.8209 61.6483C68.1246 61.6483 69.9922 63.5158 69.9922 65.8196Z" fill="white"/>
<path d="M43.9504 79.0493C42.3214 80.6784 39.6803 80.6784 38.0513 79.0493C36.4223 77.4203 36.4223 74.7792 38.0513 73.1501C38.6905 72.5109 39.4858 72.1237 40.3145 71.9861V10.0129C39.4858 9.87533 38.6905 9.48812 38.0513 8.84888C36.4223 7.21986 36.4223 4.5787 38.0513 2.94968C39.6803 1.32066 42.3214 1.32066 43.9504 2.94968C45.5795 4.5787 45.5795 7.21986 43.9504 8.84888C43.3876 9.41176 42.7039 9.78022 41.9828 9.95411V72.0449C42.7039 72.2188 43.3876 72.5873 43.9504 73.1501C45.5795 74.7792 45.5795 77.4203 43.9504 79.0493Z" fill="white"/>
<path d="M2.95044 43.9502C1.32144 42.3211 1.32144 39.68 2.95044 38.051C4.57945 36.4219 7.22059 36.422 8.8496 38.051C9.48884 38.6902 9.87604 39.4855 10.0136 40.3142H71.9864C72.124 39.4855 72.5112 38.6902 73.1504 38.051C74.7794 36.422 77.4206 36.4219 79.0496 38.051C80.6786 39.68 80.6786 42.3211 79.0496 43.9502C77.4205 45.5792 74.7794 45.5792 73.1504 43.9502C72.5875 43.3873 72.2191 42.7036 72.0452 41.9825H9.95483C9.78094 42.7036 9.41248 43.3873 8.8496 43.9502C7.22059 45.5792 4.57945 45.5792 2.95044 43.9502Z" fill="white"/>
<path d="M65.4874 40.8797C65.4874 54.472 54.4687 65.4908 40.8765 65.4908C27.2843 65.4908 16.2656 54.472 16.2656 40.8797C16.2656 27.2874 27.2843 16.2687 40.8765 16.2687C54.4687 16.2687 65.4874 27.2874 65.4874 40.8797Z" fill="white"/>
<path d="M52.1525 29.6169V52.0445H49.6325C48.4807 52.0445 47.5469 51.1107 47.5469 49.9589V31.7026C47.5469 30.5507 48.4807 29.6169 49.6325 29.6169H52.1525Z" fill="#161D5D"/>
<path d="M36.0369 33.4524L30.4081 50.609C30.1271 51.4655 29.3277 52.0445 28.4264 52.0445H25.0234L33.3567 29.6169L36.286 30.4512L36.0369 33.4524ZM42.6142 52.0445C41.7134 52.0445 40.9144 51.4662 40.633 50.6105L34.9895 33.4524L33.3567 29.6169H34.7598C36.5005 29.6169 38.0581 30.6978 38.6673 32.3284L46.0338 52.0445H42.6142ZM40.8274 43.6958V47.3156H28.9821V43.6958H40.8274Z" fill="#161D5D"/>
</svg>
