<svg width="26" height="24" viewBox="0 0 26 24" fill="none" xmlns="http://www.w3.org/2000/svg">
<path d="M24.8913 1.54957e-06H7.15466C7.0093 -0.000119721 6.86535 0.0282205 6.73101 0.0834041C6.59668 0.138588 6.47459 0.219534 6.37172 0.321621C6.26885 0.423709 6.18722 0.544938 6.13148 0.678387C6.07575 0.811836 6.047 0.954892 6.04688 1.09939V6L16.3252 9L26 6V1.09939C25.9999 0.954814 25.9711 0.811683 25.9153 0.678173C25.8595 0.544664 25.7778 0.423394 25.6748 0.321295C25.5719 0.219195 25.4497 0.138268 25.3152 0.0831389C25.1808 0.0280096 25.0367 -0.000241072 24.8913 1.54957e-06Z" fill="#41A5EE"/>
<path d="M26 6H6.04688V12L16.3252 13.8L26 12V6Z" fill="#2B7CD3"/>
<path d="M6.04688 12V18L15.7207 19.2L26 18V12H6.04688Z" fill="#185ABD"/>
<path d="M7.15466 24H24.8904C25.0359 24.0004 25.18 23.9722 25.3146 23.9171C25.4491 23.8621 25.5714 23.7811 25.6745 23.679C25.7776 23.5769 25.8594 23.4556 25.9152 23.322C25.9711 23.1885 25.9999 23.0453 26 22.9006V18H6.04688V22.9006C6.047 23.0451 6.07575 23.1882 6.13148 23.3216C6.18722 23.4551 6.26885 23.5763 6.37172 23.6784C6.47459 23.7805 6.59668 23.8614 6.73101 23.9166C6.86535 23.9718 7.0093 24.0001 7.15466 24Z" fill="#103F91"/>
<path opacity="0.1" d="M13.403 4.7998H6.04688V19.7998H13.403C13.6961 19.7984 13.9769 19.6821 14.1844 19.4764C14.3919 19.2706 14.5095 18.9918 14.5117 18.7004V5.89919C14.5095 5.60781 14.3919 5.32902 14.1844 5.12324C13.9769 4.91746 13.6961 4.80125 13.403 4.7998Z" fill="black"/>
<path opacity="0.2" d="M12.7985 5.3999H6.04688V20.3999H12.7985C13.0916 20.3985 13.3724 20.2822 13.5799 20.0765C13.7874 19.8707 13.905 19.5919 13.9072 19.3005V6.49929C13.905 6.20791 13.7874 5.92912 13.5799 5.72334C13.3724 5.51756 13.0916 5.40135 12.7985 5.3999Z" fill="black"/>
<path opacity="0.2" d="M12.7985 5.3999H6.04688V19.1999H12.7985C13.0916 19.1985 13.3724 19.0822 13.5799 18.8765C13.7874 18.6707 13.905 18.3919 13.9072 18.1005V6.49929C13.905 6.20791 13.7874 5.92912 13.5799 5.72334C13.3724 5.51756 13.0916 5.40135 12.7985 5.3999Z" fill="black"/>
<path opacity="0.2" d="M12.194 5.3999H6.04688V19.1999H12.194C12.4871 19.1985 12.7679 19.0822 12.9754 18.8765C13.1829 18.6707 13.3005 18.3919 13.3027 18.1005V6.49929C13.3005 6.20791 13.1829 5.92912 12.9754 5.72334C12.7679 5.51756 12.4871 5.40135 12.194 5.3999Z" fill="black"/>
<path d="M1.10871 5.3999H12.194C12.4876 5.39966 12.7694 5.51532 12.9773 5.72147C13.1852 5.92762 13.3022 6.20738 13.3027 6.49929V17.5005C13.3022 17.7924 13.1852 18.0722 12.9773 18.2783C12.7694 18.4845 12.4876 18.6001 12.194 18.5999H1.10871C0.963281 18.6001 0.819226 18.5719 0.684782 18.5168C0.550338 18.4616 0.428141 18.3807 0.325175 18.2786C0.22221 18.1765 0.140494 18.0552 0.0846983 17.9217C0.0289029 17.7882 0.000121802 17.6451 0 17.5005V6.49929C0.000121802 6.35472 0.0289029 6.21158 0.0846983 6.07808C0.140494 5.94457 0.22221 5.8233 0.325175 5.7212C0.428141 5.6191 0.550338 5.53817 0.684782 5.48304C0.819226 5.42791 0.963281 5.39966 1.10871 5.3999Z" fill="url(#paint0_linear_1_8216)"/>
<path d="M4.54768 13.8351C4.56903 14.0049 4.58389 14.1526 4.59039 14.2791H4.61639C4.62568 14.1591 4.6461 14.0141 4.67675 13.8452C4.70739 13.6763 4.73432 13.5332 4.75939 13.416L5.92475 8.42492H7.43274L8.63988 13.3412C8.7102 13.6453 8.76045 13.9537 8.79031 14.2643H8.81074C8.83292 13.9619 8.87479 13.6613 8.9361 13.3643L9.90088 8.41846H11.2724L9.57867 15.5705H7.97503L6.82639 10.8388C6.79296 10.7021 6.7552 10.5243 6.7131 10.3052C6.67101 10.0861 6.64501 9.92615 6.6351 9.82523H6.6156C6.6026 9.94153 6.5766 10.1141 6.5376 10.3431C6.4986 10.5729 6.46796 10.7418 6.44474 10.8526L5.36482 15.5732H3.73425L2.03125 8.42492H3.42411L4.47432 13.4261C4.50566 13.5611 4.53015 13.6976 4.54768 13.8351Z" fill="white"/>
<defs>
<linearGradient id="paint0_linear_1_8216" x1="2.31585" y1="4.5359" x2="10.9099" y2="19.5081" gradientUnits="userSpaceOnUse">
<stop stop-color="#2368C4"/>
<stop offset="0.5" stop-color="#1A5DBE"/>
<stop offset="1" stop-color="#1146AC"/>
</linearGradient>
</defs>
</svg>
