<svg width="82" height="46" viewBox="0 0 82 46" fill="none" xmlns="http://www.w3.org/2000/svg">
<path d="M14.4424 25.0134C18.8116 25.0134 22.3535 28.6371 22.3535 33.1072C22.3535 37.5773 18.8116 41.201 14.4424 41.201C10.0732 41.201 6.53125 37.5773 6.53125 33.1072C6.53125 28.6371 10.0732 25.0134 14.4424 25.0134ZM14.4161 27.8701C11.6291 27.8701 9.3698 30.203 9.3698 33.0808C9.3698 35.9585 11.6291 38.2915 14.4161 38.2915C17.2031 38.2915 19.4624 35.9585 19.4624 33.0808C19.4624 30.203 17.2031 27.8701 14.4161 27.8701Z" fill="#161D5D"/>
<path d="M23.7734 39.2704C25.4643 37.5335 29.0037 33.9063 29.6345 33.2926C29.8254 33.1069 30.0228 32.8421 30.2127 32.5449C30.3873 32.2717 30.5555 31.9711 30.7068 31.6792C30.9347 31.2393 31.142 30.8851 31.1683 30.7002C31.1946 30.5154 31.3062 29.6185 31.1683 29.1132C31.0657 28.7374 30.8826 28.3806 30.5807 28.121C30.2902 27.8713 29.8898 27.7116 29.3454 27.7116C29.0008 27.7116 28.705 27.7696 28.4518 27.8696C27.3299 28.3126 27.0445 29.5796 27.0588 30.2773H24.2202C24.2104 29.5542 24.3691 28.8687 24.5794 28.2933C24.8183 27.6394 25.1237 27.1279 25.3241 26.8653C25.9543 26.2182 26.49 25.7674 27.1376 25.4726C27.8136 25.1649 28.6115 25.0272 29.7659 25.0137C30.5569 25.0045 31.2393 25.2243 31.7897 25.524C32.4976 25.9095 32.9872 26.4271 33.209 26.7594C33.5841 27.2682 33.8291 27.788 33.9787 28.2933C34.1263 28.7917 34.1812 29.276 34.1766 29.7216C34.1686 30.5128 33.7923 31.5279 33.7405 31.6639C33.7365 31.6744 33.7329 31.6839 33.7289 31.6945C33.6793 31.8263 33.3103 32.7832 32.792 33.504C31.7175 34.9984 29.9745 36.9006 28.9249 37.9743H34.2866V40.6194H23.7734V39.2704Z" fill="#161D5D"/>
<path d="M50.065 31.7006C50.5394 31.7006 50.924 32.0863 50.924 32.5621C50.924 33.0379 50.5394 33.4236 50.065 33.4236C49.8788 33.4236 49.7067 33.364 49.566 33.2631L40.5423 42.3137C40.6429 42.4548 40.7023 42.6275 40.7023 42.8143C40.7023 43.2901 40.3177 43.6758 39.8433 43.6758C39.3689 43.6758 38.9844 43.2901 38.9844 42.8143C38.9844 42.3384 39.3689 41.9527 39.8433 41.9527C40.0073 41.9527 40.1605 41.9988 40.2908 42.0787L49.3316 33.0109C49.2519 32.8802 49.206 32.7265 49.206 32.5621C49.206 32.0863 49.5906 31.7006 50.065 31.7006Z" fill="#039FD3"/>
<path d="M50.9219 42.8143C50.9219 43.2901 50.5373 43.6758 50.0629 43.6758C49.5885 43.6758 49.2039 43.2901 49.2039 42.8143C49.2039 42.6275 49.2634 42.4548 49.364 42.3137L40.3403 33.2631C40.1996 33.364 40.0274 33.4236 39.8413 33.4236C39.3669 33.4236 38.9823 33.0379 38.9823 32.5621C38.9823 32.0863 39.3669 31.7006 39.8413 31.7006C40.3157 31.7006 40.7002 32.0863 40.7002 32.5621C40.7002 32.7265 40.6543 32.8802 40.5746 33.0109L49.6155 42.0787C49.7458 41.9988 49.899 41.9527 50.0629 41.9527C50.5373 41.9527 50.9219 42.3384 50.9219 42.8143Z" fill="#039FD3"/>
<path d="M45.5941 45.4501C45.2603 45.786 44.7191 45.786 44.3853 45.4501C44.0515 45.1142 44.0515 44.5696 44.3853 44.2336C44.5163 44.1018 44.6792 44.022 44.849 43.9936V31.2141C44.6792 31.1858 44.5163 31.1059 44.3853 30.9741C44.0515 30.6382 44.0515 30.0936 44.3853 29.7576C44.7191 29.4217 45.2603 29.4217 45.5941 29.7576C45.9278 30.0936 45.9278 30.6382 45.5941 30.9741C45.4787 31.0902 45.3386 31.1662 45.1909 31.202V44.0057C45.3386 44.0416 45.4787 44.1176 45.5941 44.2336C45.9278 44.5696 45.9278 45.1142 45.5941 45.4501Z" fill="#039FD3"/>
<path d="M37.1956 38.2122C36.8618 37.8763 36.8618 37.3317 37.1956 36.9958C37.5294 36.6598 38.0706 36.6598 38.4044 36.9958C38.5354 37.1276 38.6147 37.2916 38.6429 37.4625H51.3415C51.3697 37.2916 51.449 37.1276 51.58 36.9958C51.9138 36.6598 52.455 36.6598 52.7888 36.9958C53.1226 37.3317 53.1226 37.8763 52.7888 38.2122C52.455 38.5482 51.9138 38.5482 51.58 38.2122C51.4647 38.0962 51.3892 37.9552 51.3535 37.8065H38.6309C38.5952 37.9552 38.5197 38.0962 38.4044 38.2122C38.0706 38.5482 37.5294 38.5482 37.1956 38.2122Z" fill="#039FD3"/>
<path d="M50.0974 37.688C50.0974 40.5387 47.7933 42.8497 44.9511 42.8497C42.1088 42.8497 39.8047 40.5387 39.8047 37.688C39.8047 34.8372 42.1088 32.5262 44.9511 32.5262C47.7933 32.5262 50.0974 34.8372 50.0974 37.688Z" fill="#1D3B72"/>
<path d="M47.214 35.4167V39.9591H46.7635C46.5576 39.9591 46.3906 39.7699 46.3906 39.5367V35.8392C46.3906 35.6059 46.5576 35.4167 46.7635 35.4167H47.214Z" fill="white"/>
<path d="M44.0175 36.1936L42.9145 39.6683C42.8595 39.8418 42.7028 39.9591 42.5262 39.9591H41.8594L43.4923 35.4167L44.0663 35.5857L44.0175 36.1936ZM45.3064 39.9591C45.1299 39.9591 44.9733 39.8419 44.9182 39.6686L43.8123 36.1936L43.4923 35.4167H43.7673C44.1084 35.4167 44.4136 35.6357 44.533 35.9659L45.9765 39.9591H45.3064ZM44.9563 38.2682V39.0013H42.6351V38.2682H44.9563Z" fill="white"/>
<path d="M74.5706 0C72.9465 20.0287 50.9864 12.7846 31.8625 6.62464C27.3318 5.16529 23.2102 4.49445 19.5643 4.64676C10.8986 5.00878 4.92012 9.10981 2.52344 11.7599C10.0159 8.26534 16.198 8.60271 19.5643 9.09323C20.9726 9.29844 21.8959 9.44856 22.2005 9.51991C23.6245 9.85352 23.9187 9.92501 27.8141 11.0815C30.495 12.001 34.5046 13.4365 40.6065 15.656C52.5822 20.0121 60.6994 19.3536 63.261 18.4798C75.2649 15.1532 75.8023 4.77385 74.5706 0Z" fill="#0975BB"/>
<path d="M70.9936 19.3096C58.249 29.8947 44.4999 20.0745 29.0127 15.7175C25.1347 14.6265 22.2622 14.0343 18.0064 13.9164C10.5408 13.474 2.28358 16.4465 0.00128294 18.4917C6.72759 16.1697 11.9771 16.453 15.3937 16.453C16.1267 16.453 17.7369 16.7019 18.0064 16.7019C18.9404 16.7019 20.5718 16.9864 23.953 17.8042C26.601 18.4448 30.8661 19.8286 36.0825 21.8462C43.7664 24.8183 48.284 25.8077 51.8272 26.5837L52.007 26.6231C59.7387 27.9625 67.364 25.0703 70.9936 19.3096Z" fill="#213E99"/>
</svg>
