<svg width="37" height="37" viewBox="0 0 37 37" fill="none" xmlns="http://www.w3.org/2000/svg">
<path d="M30.7129 0H5.41992C2.42658 0 0 2.42658 0 5.41992V30.7129C0 33.7062 2.42658 36.1328 5.41992 36.1328H30.7129C33.7062 36.1328 36.1328 33.7062 36.1328 30.7129V5.41992C36.1328 2.42658 33.7062 0 30.7129 0Z" fill="#C80A0A"/>
<path d="M16.8682 6.66602C17.8335 6.66613 18.4365 7.2198 18.7842 7.90527C19.126 8.57944 19.2354 9.39978 19.2354 10.0215C19.2353 11.5903 18.7442 13.6264 18.0547 15.7129C18.9515 17.4385 20.1289 19.0027 21.5391 20.3418C22.9015 20.1397 24.0797 20.0039 25.1953 20.0039C26.1615 20.0039 27.0134 20.0938 27.7109 20.2773C28.4038 20.4597 28.9677 20.741 29.3311 21.1436C29.7753 21.6282 29.953 22.3521 29.665 22.9707C29.3709 23.6025 28.6389 24.0321 27.4541 24.0322C26.283 24.0322 23.9361 23.668 21.2441 21.3682C19.1223 21.7583 17.0319 22.3037 14.9902 23.001C14.0794 24.6033 13.0287 26.1937 11.9268 27.3926C10.8173 28.5997 9.60628 29.4667 8.39941 29.4668C7.59442 29.4668 7.04088 29.1762 6.71289 28.7637C6.39198 28.3599 6.30388 27.8592 6.39062 27.4688C6.4569 27.0749 6.68131 26.681 7.0127 26.2959C7.35017 25.9038 7.81307 25.5042 8.37891 25.1045C9.49342 24.3173 11.0331 23.5105 12.874 22.7412C14.2064 20.1398 15.3569 17.4493 16.3164 14.6885C15.6618 13.219 15.2616 11.7823 15.1113 10.5449C14.9593 9.29227 15.0579 8.2044 15.4492 7.5L15.4541 7.49121L15.46 7.4834C15.7764 7.00873 16.2707 6.66602 16.8682 6.66602ZM12.0879 24.1016C10.764 24.6795 9.6713 25.2833 8.8623 25.8643C8.38747 26.2053 8.0162 26.5351 7.75293 26.8408C7.4895 27.1468 7.3474 27.414 7.30469 27.6348L7.2959 27.7607C7.29715 27.892 7.33042 28.0343 7.40234 28.1494C7.48999 28.2896 7.64051 28.4023 7.90527 28.4023C8.11845 28.4023 8.39658 28.3065 8.7373 28.085C9.07432 27.8657 9.45117 27.5367 9.85742 27.1045C10.5509 26.3667 11.3124 25.3447 12.0879 24.1016ZM26.8447 21.0645C26.0985 20.9407 24.4701 20.8717 22.4922 21.126C23.434 21.8461 24.5013 22.5059 25.7344 22.833L26.0244 22.9033L26.0322 22.9053C27.0697 23.1646 27.657 22.7188 27.8076 22.2734C27.8853 22.0438 27.86 21.7936 27.7178 21.5781C27.5759 21.3635 27.3024 21.1605 26.8447 21.0645ZM17.7119 16.8965C17.1514 18.5833 16.4527 20.2206 15.6221 21.792C17.21 21.2685 18.8285 20.8432 20.4688 20.5186C19.4338 19.4038 18.5106 18.1909 17.7119 16.8965ZM17.0469 7.67285C16.7896 7.55593 16.4604 7.63297 16.2354 7.96289C16.0261 8.36087 15.9017 9.10977 15.9961 10.1484C16.0764 11.0323 16.3146 12.104 16.7695 13.3047C17.3293 11.4832 17.6054 9.93761 17.6055 8.96289C17.6055 8.17087 17.3121 7.79347 17.0469 7.67285Z" fill="white" stroke="white" stroke-width="0.5"/>
</svg>
